HIERARCHY
ROOT mixamorig:Hips
{
	OFFSET -0.000008 104.274872 1.554316
	CHANNELS 6 Xposition Yposition Zposition Xrotation Yrotation Zrotation
	JOINT mixamorig:Spine
	{
		OFFSET -0.000005 10.181595 0.131519
		CHANNELS 6 Xposition Yposition Zposition Xrotation Yrotation Zrotation
		JOINT mixamorig:Spine1
		{
			OFFSET -0.000000 9.893959 -1.470707
			CHANNELS 6 Xposition Yposition Zposition Xrotation Yrotation Zrotation
			JOINT mixamorig:Spine2
			{
				OFFSET -0.000000 9.220757 -1.370641
				CHANNELS 6 Xposition Yposition Zposition Xrotation Yrotation Zrotation
				JOINT mixamorig:Neck
				{
					OFFSET 0.000001 16.740417 -2.049036
					CHANNELS 6 Xposition Yposition Zposition Xrotation Yrotation Zrotation
					JOINT mixamorig:Head
					{
						OFFSET 0.000000 9.617874 1.685006
						CHANNELS 6 Xposition Yposition Zposition Xrotation Yrotation Zrotation
						JOINT mixamorig:HeadTop_End
						{
							OFFSET 0.000002 22.037354 7.501101
							CHANNELS 6 Xposition Yposition Zposition Xrotation Yrotation Zrotation
							End Site
							{
								OFFSET 0.000168 2310.654297 -282.823242
							}
						}
					}
				}
				JOINT mixamorig:RightShoulder
				{
					OFFSET -4.569970 11.014908 -2.160885
					CHANNELS 6 Xposition Yposition Zposition Xrotation Yrotation Zrotation
					JOINT mixamorig:RightArm
					{
						OFFSET -10.592851 -0.524811 -2.232101
						CHANNELS 6 Xposition Yposition Zposition Xrotation Yrotation Zrotation
						JOINT mixamorig:RightForeArm
						{
							OFFSET -27.841511 0.000031 -0.000004
							CHANNELS 6 Xposition Yposition Zposition Xrotation Yrotation Zrotation
							JOINT mixamorig:RightHand
							{
								OFFSET -28.328831 -0.000015 0.000015
								CHANNELS 6 Xposition Yposition Zposition Xrotation Yrotation Zrotation
								JOINT mixamorig:RightHandThumb1
								{
									OFFSET -2.464806 -1.573990 2.681852
									CHANNELS 6 Xposition Yposition Zposition Xrotation Yrotation Zrotation
									JOINT mixamorig:RightHandThumb2
									{
										OFFSET -3.215179 -1.872803 1.924282
										CHANNELS 6 Xposition Yposition Zposition Xrotation Yrotation Zrotation
										JOINT mixamorig:RightHandThumb3
										{
											OFFSET -2.654831 -1.527969 1.512609
											CHANNELS 6 Xposition Yposition Zposition Xrotation Yrotation Zrotation
											JOINT mixamorig:RightHandThumb4
											{
												OFFSET -2.018814 -1.152008 1.108052
												CHANNELS 6 Xposition Yposition Zposition Xrotation Yrotation Zrotation
												End Site
												{
													OFFSET -188.809540 -114.533607 132.431396
												}
											}
										}
									}
								}
								JOINT mixamorig:RightHandIndex1
								{
									OFFSET -9.108284 -0.517868 2.259835
									CHANNELS 6 Xposition Yposition Zposition Xrotation Yrotation Zrotation
									JOINT mixamorig:RightHandIndex2
									{
										OFFSET -3.699989 0.000000 0.001215
										CHANNELS 6 Xposition Yposition Zposition Xrotation Yrotation Zrotation
										JOINT mixamorig:RightHandIndex3
										{
											OFFSET -2.850006 0.000031 -0.000522
											CHANNELS 6 Xposition Yposition Zposition Xrotation Yrotation Zrotation
											JOINT mixamorig:RightHandIndex4
											{
												OFFSET -2.772186 -0.000015 -0.000020
												CHANNELS 6 Xposition Yposition Zposition Xrotation Yrotation Zrotation
												End Site
												{
													OFFSET -277.218445 0.000000 -0.050231
												}
											}
										}
									}
								}
								JOINT mixamorig:RightHandMiddle1
								{
									OFFSET -9.532516 -0.000031 -0.000023
									CHANNELS 6 Xposition Yposition Zposition Xrotation Yrotation Zrotation
									JOINT mixamorig:RightHandMiddle2
									{
										OFFSET -3.700005 -0.000015 0.003713
										CHANNELS 6 Xposition Yposition Zposition Xrotation Yrotation Zrotation
										JOINT mixamorig:RightHandMiddle3
										{
											OFFSET -2.949974 0.000015 -0.002054
											CHANNELS 6 Xposition Yposition Zposition Xrotation Yrotation Zrotation
											JOINT mixamorig:RightHandMiddle4
											{
												OFFSET -2.946640 0.000000 -0.000156
												CHANNELS 6 Xposition Yposition Zposition Xrotation Yrotation Zrotation
												End Site
												{
													OFFSET -294.664337 0.000000 -0.113670
												}
											}
										}
									}
								}
								JOINT mixamorig:RightHandRing1
								{
									OFFSET -9.103600 -0.043076 -1.865134
									CHANNELS 6 Xposition Yposition Zposition Xrotation Yrotation Zrotation
									JOINT mixamorig:RightHandRing2
									{
										OFFSET -3.379288 0.000000 -0.001055
										CHANNELS 6 Xposition Yposition Zposition Xrotation Yrotation Zrotation
										JOINT mixamorig:RightHandRing3
										{
											OFFSET -2.889687 -0.000015 0.000379
											CHANNELS 6 Xposition Yposition Zposition Xrotation Yrotation Zrotation
											JOINT mixamorig:RightHandRing4
											{
												OFFSET -2.638809 -0.000015 0.000941
												CHANNELS 6 Xposition Yposition Zposition Xrotation Yrotation Zrotation
												End Site
												{
													OFFSET -263.880371 0.000000 0.516020
												}
											}
										}
									}
								}
								JOINT mixamorig:RightHandPinky1
								{
									OFFSET -8.076683 -0.486710 -3.806280
									CHANNELS 6 Xposition Yposition Zposition Xrotation Yrotation Zrotation
									JOINT mixamorig:RightHandPinky2
									{
										OFFSET -3.600014 -0.000015 -0.003747
										CHANNELS 6 Xposition Yposition Zposition Xrotation Yrotation Zrotation
										JOINT mixamorig:RightHandPinky3
										{
											OFFSET -2.099983 0.000000 -0.005739
											CHANNELS 6 Xposition Yposition Zposition Xrotation Yrotation Zrotation
											JOINT mixamorig:RightHandPinky4
											{
												OFFSET -2.115768 -0.000031 -0.003680
												CHANNELS 6 Xposition Yposition Zposition Xrotation Yrotation Zrotation
												End Site
												{
													OFFSET -211.577087 0.000000 -0.350686
												}
											}
										}
									}
								}
							}
						}
					}
				}
				JOINT mixamorig:LeftShoulder
				{
					OFFSET 4.570447 11.014725 -2.160855
					CHANNELS 6 Xposition Yposition Zposition Xrotation Yrotation Zrotation
					JOINT mixamorig:LeftArm
					{
						OFFSET 10.592371 -0.524597 -2.232119
						CHANNELS 6 Xposition Yposition Zposition Xrotation Yrotation Zrotation
						JOINT mixamorig:LeftForeArm
						{
							OFFSET 27.841532 -0.000031 0.000026
							CHANNELS 6 Xposition Yposition Zposition Xrotation Yrotation Zrotation
							JOINT mixamorig:LeftHand
							{
								OFFSET 28.328846 -0.000061 0.000022
								CHANNELS 6 Xposition Yposition Zposition Xrotation Yrotation Zrotation
								JOINT mixamorig:LeftHandThumb1
								{
									OFFSET 2.466141 -1.576172 2.681732
									CHANNELS 6 Xposition Yposition Zposition Xrotation Yrotation Zrotation
									JOINT mixamorig:LeftHandThumb2
									{
										OFFSET 3.217812 -1.872070 1.916482
										CHANNELS 6 Xposition Yposition Zposition Xrotation Yrotation Zrotation
										JOINT mixamorig:LeftHandThumb3
										{
											OFFSET 2.656029 -1.528778 1.514513
											CHANNELS 6 Xposition Yposition Zposition Xrotation Yrotation Zrotation
											JOINT mixamorig:LeftHandThumb4
											{
												OFFSET 2.020889 -1.154053 1.115139
												CHANNELS 6 Xposition Yposition Zposition Xrotation Yrotation Zrotation
												End Site
												{
													OFFSET 190.885437 -115.081749 130.048782
												}
											}
										}
									}
								}
								JOINT mixamorig:LeftHandIndex1
								{
									OFFSET 9.109314 -0.518021 2.259871
									CHANNELS 6 Xposition Yposition Zposition Xrotation Yrotation Zrotation
									JOINT mixamorig:LeftHandIndex2
									{
										OFFSET 3.699989 0.000000 -0.000322
										CHANNELS 6 Xposition Yposition Zposition Xrotation Yrotation Zrotation
										JOINT mixamorig:LeftHandIndex3
										{
											OFFSET 2.850006 0.000000 0.000352
											CHANNELS 6 Xposition Yposition Zposition Xrotation Yrotation Zrotation
											JOINT mixamorig:LeftHandIndex4
											{
												OFFSET 2.774864 -0.000031 -0.000027
												CHANNELS 6 Xposition Yposition Zposition Xrotation Yrotation Zrotation
												End Site
												{
													OFFSET 277.486267 0.000000 -0.009857
												}
											}
										}
									}
								}
								JOINT mixamorig:LeftHandMiddle1
								{
									OFFSET 9.533394 0.000061 0.000044
									CHANNELS 6 Xposition Yposition Zposition Xrotation Yrotation Zrotation
									JOINT mixamorig:LeftHandMiddle2
									{
										OFFSET 3.699989 -0.000015 -0.000231
										CHANNELS 6 Xposition Yposition Zposition Xrotation Yrotation Zrotation
										JOINT mixamorig:LeftHandMiddle3
										{
											OFFSET 2.949997 -0.000015 -0.000059
											CHANNELS 6 Xposition Yposition Zposition Xrotation Yrotation Zrotation
											JOINT mixamorig:LeftHandMiddle4
											{
												OFFSET 2.952896 0.000031 0.000063
												CHANNELS 6 Xposition Yposition Zposition Xrotation Yrotation Zrotation
												End Site
												{
													OFFSET 295.289337 0.000000 0.022810
												}
											}
										}
									}
								}
								JOINT mixamorig:LeftHandRing1
								{
									OFFSET 9.104523 -0.042999 -1.865074
									CHANNELS 6 Xposition Yposition Zposition Xrotation Yrotation Zrotation
									JOINT mixamorig:LeftHandRing2
									{
										OFFSET 3.150009 -0.000031 0.000043
										CHANNELS 6 Xposition Yposition Zposition Xrotation Yrotation Zrotation
										JOINT mixamorig:LeftHandRing3
										{
											OFFSET 2.949982 -0.000015 0.000040
											CHANNELS 6 Xposition Yposition Zposition Xrotation Yrotation Zrotation
											JOINT mixamorig:LeftHandRing4
											{
												OFFSET 2.644348 0.000000 0.000057
												CHANNELS 6 Xposition Yposition Zposition Xrotation Yrotation Zrotation
												End Site
												{
													OFFSET 264.434631 0.000000 0.012105
												}
											}
										}
									}
								}
								JOINT mixamorig:LeftHandPinky1
								{
									OFFSET 8.077789 -0.486847 -3.806259
									CHANNELS 6 Xposition Yposition Zposition Xrotation Yrotation Zrotation
									JOINT mixamorig:LeftHandPinky2
									{
										OFFSET 3.599953 0.000031 0.014727
										CHANNELS 6 Xposition Yposition Zposition Xrotation Yrotation Zrotation
										JOINT mixamorig:LeftHandPinky3
										{
											OFFSET 2.100021 0.000015 0.007705
											CHANNELS 6 Xposition Yposition Zposition Xrotation Yrotation Zrotation
											JOINT mixamorig:LeftHandPinky4
											{
												OFFSET 2.125504 0.000031 0.007517
												CHANNELS 6 Xposition Yposition Zposition Xrotation Yrotation Zrotation
												End Site
												{
													OFFSET 212.550781 0.000000 0.625752
												}
											}
										}
									}
								}
							}
						}
					}
				}
			}
		}
	}
	JOINT mixamorig:RightUpLeg
	{
		OFFSET -8.207787 -6.751648 -1.599560
		CHANNELS 6 Xposition Yposition Zposition Xrotation Yrotation Zrotation
		JOINT mixamorig:RightLeg
		{
			OFFSET -0.000002 -44.370117 0.345942
			CHANNELS 6 Xposition Yposition Zposition Xrotation Yrotation Zrotation
			JOINT mixamorig:RightFoot
			{
				OFFSET 0.000003 -44.423679 -3.043532
				CHANNELS 6 Xposition Yposition Zposition Xrotation Yrotation Zrotation
				JOINT mixamorig:RightToeBase
				{
					OFFSET -0.000002 -8.728671 10.710558
					CHANNELS 6 Xposition Yposition Zposition Xrotation Yrotation Zrotation
					JOINT mixamorig:RightToe_End
					{
						OFFSET -0.000001 -0.000679 9.278119
						CHANNELS 6 Xposition Yposition Zposition Xrotation Yrotation Zrotation
						End Site
						{
							OFFSET 0.000000 -0.067690 927.812134
						}
					}
				}
			}
		}
	}
	JOINT mixamorig:LeftUpLeg
	{
		OFFSET 8.207793 -6.751686 -1.599556
		CHANNELS 6 Xposition Yposition Zposition Xrotation Yrotation Zrotation
		JOINT mixamorig:LeftLeg
		{
			OFFSET -0.000004 -44.370014 0.346954
			CHANNELS 6 Xposition Yposition Zposition Xrotation Yrotation Zrotation
			JOINT mixamorig:LeftFoot
			{
				OFFSET -0.000001 -44.423672 -3.044401
				CHANNELS 6 Xposition Yposition Zposition Xrotation Yrotation Zrotation
				JOINT mixamorig:LeftToeBase
				{
					OFFSET -0.000002 -8.728669 10.710558
					CHANNELS 6 Xposition Yposition Zposition Xrotation Yrotation Zrotation
					JOINT mixamorig:LeftToe_End
					{
						OFFSET -0.000003 -0.000679 9.278133
						CHANNELS 6 Xposition Yposition Zposition Xrotation Yrotation Zrotation
						End Site
						{
							OFFSET 0.000000 -0.068021 927.813477
						}
					}
				}
			}
		}
	}
}
MOTION
Frames: 3
Frame Time: 0.033333
0.000006 104.270477 1.554256 0.000010 0.000003 -0.000113 -0.000005 10.181587 0.131522 0.000001 -0.000003 0.000084 -0.000000 9.893967 -1.470711 0.000001 0.000000 -0.000000 -0.000000 9.220802 -1.370642 0.000000 -0.000000 -0.000000 0.000001 16.740433 -2.049030 0.000000 -0.000000 -0.000000 0.000000 9.617859 1.685014 0.000000 0.000000 0.000000 0.000002 22.037384 7.501101 0.000000 -0.000000 0.000000 -4.569968 11.014880 -2.160881 0.000008 0.000001 -0.000038 -10.592765 -0.524856 -2.231728 83.625913 67.806621 -62.025310 -27.841503 -0.000016 0.000584 37.178260 102.631802 -45.568939 -28.328836 0.000006 0.000016 -0.000322 -0.000044 0.000007 -2.464565 -1.573565 2.682175 -62.116616 -186.707975 -72.607131 -3.214730 -1.872549 1.924673 129.352991 -16.019908 156.822373 -2.654567 -1.527682 1.513042 128.548094 6.130026 136.231675 -2.018823 -1.152011 1.108062 0.000000 -0.000001 0.000004 -9.108273 -0.517872 2.260395 162.858730 19.360240 -97.308804 -3.700036 0.000071 0.001777 151.923010 24.149980 -81.011371 -2.850099 0.000154 -0.000029 147.722525 20.120784 -63.022415 -2.772162 -0.000015 -0.000018 -0.000001 -0.000000 -0.000001 -9.532560 0.000067 0.000510 157.463195 12.734171 -59.191956 -3.700084 0.000116 0.004241 147.852832 18.233438 -57.896993 -2.950099 0.000184 -0.001573 144.740998 15.419558 -46.125487 -2.946629 0.000012 -0.000152 0.000001 0.000004 0.000001 -9.103667 -0.042940 -1.864618 155.414275 12.128234 -51.783018 -3.379315 0.000257 -0.000566 145.960173 6.251816 -20.287576 -2.889743 0.000257 0.000860 140.766702 5.708518 -16.056619 -2.638803 -0.000001 0.000940 -0.000001 -0.000000 0.000000 -8.076729 -0.486569 -3.805747 155.478478 12.022980 -51.037373 -3.599960 0.000246 -0.003281 145.936458 -1.239516 5.017275 -2.099974 0.000318 -0.005274 141.391787 -0.582537 2.224782 -2.115790 -0.000054 -0.003680 0.000002 0.000001 -0.000000 4.570446 11.014691 -2.160851 -0.000018 0.000010 -0.000021 10.592522 -0.524546 -2.232390 65.534258 -66.042001 45.401480 27.841778 -0.000055 -0.000114 223.611801 -79.479455 231.396864 28.328842 -0.000015 0.000035 0.000019 -0.000089 -0.000001 2.466188 -1.576127 2.681877 -70.323163 25.556170 23.076533 3.217812 -1.872007 1.916538 83.825634 137.029864 -136.795548 2.655994 -1.528800 1.514603 33.372632 127.991516 -89.386214 2.020879 -1.154068 1.115151 0.000004 -0.000002 0.000004 9.109175 -0.517688 2.260020 27.515885 -168.658954 495.870969 3.700031 -0.000002 -0.000342 38.298319 -49.554416 18.222776 2.850020 0.000031 0.000276 -149.562100 -168.185526 183.224291 2.774873 -0.000045 -0.000030 -0.000000 0.000000 -0.000000 9.533308 0.000414 0.000190 207.627041 -6.840290 -27.303241 3.700037 -0.000021 -0.000199 192.671071 -143.851775 -175.850651 2.950024 0.000027 -0.000131 24.575968 -10.153106 2.217789 2.952878 -0.000013 0.000058 -0.000002 -0.000001 0.000001 9.104466 -0.042648 -1.864913 210.729613 -5.503783 -19.848632 3.149997 0.000024 -0.000013 187.094973 169.235832 -180.669336 2.949970 0.000044 -0.000058 23.651285 3.852254 -0.806613 2.644318 0.000000 0.000062 0.000001 -0.000000 -0.000000 8.077757 -0.486505 -3.806099 211.054266 -2.331210 -9.903905 3.599868 0.000039 0.014600 199.096408 128.799104 -189.367159 2.099961 0.000063 0.007585 29.159471 16.709452 -4.335517 2.125492 -0.000015 0.007520 0.000002 -0.000001 -0.000001 -8.207786 -6.751667 -1.599560 -0.077001 -0.000003 0.000080 -0.000002 -44.370110 0.345938 0.153719 -0.000000 -0.000000 0.000000 -44.423679 -3.043532 -0.076700 0.000000 -0.000002 -0.000006 -8.728667 10.710559 -0.000009 -0.000000 -0.000000 -0.000001 -0.000679 9.278123 0.000000 -0.000000 -0.000000 8.207792 -6.751710 -1.599556 -0.074518 -0.000003 0.000081 -0.000002 -44.370014 0.346960 0.148822 0.000002 0.000000 -0.000001 -44.423664 -3.044403 -0.074314 0.000000 -0.000002 -0.000004 -8.728671 10.710558 0.000007 -0.000000 -0.000000 0.000000 -0.000680 9.278137 -0.000000 0.000000 -0.000001 
0.000006 104.270477 1.554256 0.000010 0.000003 -0.000113 -0.000005 10.181587 0.131522 0.000001 -0.000003 0.000084 -0.000000 9.893967 -1.470711 0.000001 0.000000 -0.000000 -0.000000 9.220802 -1.370642 0.000000 -0.000000 -0.000000 0.000001 16.740433 -2.049030 0.000000 -0.000000 -0.000000 0.000000 9.617859 1.685014 0.000000 0.000000 0.000000 0.000002 22.037384 7.501101 0.000000 -0.000000 0.000000 -4.569968 11.014880 -2.160881 0.000008 0.000001 -0.000038 -10.592766 -0.524851 -2.231736 83.390633 66.900344 -60.954329 -27.841492 -0.000010 0.000585 36.689693 102.761801 -45.085488 -28.328831 0.000034 0.000029 -0.000319 -0.000045 0.000008 -2.464533 -1.573602 2.682163 -62.323407 -182.353251 -65.440643 -3.214727 -1.872575 1.924686 130.411056 -17.491845 159.780514 -2.654589 -1.527659 1.513042 128.286321 9.001210 131.068161 -2.018835 -1.151986 1.108077 0.000000 -0.000004 0.000005 -9.108352 -0.517756 2.260358 151.628465 18.630273 -66.134051 -3.700029 0.000069 0.001759 148.686415 22.244695 -70.013161 -2.850092 0.000165 -0.000013 146.898982 18.749146 -58.105136 -2.772161 0.000002 -0.000020 0.000002 -0.000001 -0.000001 -9.532575 0.000094 0.000468 149.253690 13.532200 -47.194278 -3.700078 0.000151 0.004224 144.534890 17.867044 -52.052308 -2.950082 0.000203 -0.001571 142.875782 15.003675 -42.803416 -2.946629 0.000016 -0.000156 0.000000 -0.000003 0.000002 -9.103684 -0.042913 -1.864636 148.054090 13.533656 -44.879185 -3.379329 0.000225 -0.000570 141.757093 10.393927 -29.451724 -2.889767 0.000261 0.000843 138.685611 8.934638 -23.543114 -2.638818 -0.000029 0.000941 0.000002 0.000001 0.000004 -8.076745 -0.486567 -3.805774 149.834092 15.206578 -52.157404 -3.600050 0.000216 -0.003274 145.677089 5.964751 -17.994548 -2.100027 0.000212 -0.005255 142.595362 5.626373 -15.847407 -2.115791 -0.000055 -0.003682 -0.000001 0.000005 -0.000004 4.570446 11.014691 -2.160851 -0.000018 0.000010 -0.000021 10.592522 -0.524533 -2.232392 65.757202 -64.895116 44.682555 27.841776 -0.000054 -0.000118 223.771136 -79.111062 231.871617 28.328831 -0.000014 0.000027 0.000018 -0.000089 0.000000 2.466178 -1.576122 2.681891 -63.073368 15.719615 18.634721 3.217843 -1.871980 1.916531 93.376752 146.588058 -145.980130 2.656005 -1.528815 1.514608 52.378900 133.192500 -110.308901 2.020891 -1.154060 1.115158 0.000001 0.000007 0.000002 9.109184 -0.517673 2.260056 31.781768 -167.037549 496.507925 3.700020 -0.000004 -0.000342 20.056579 -25.506165 4.589595 2.850015 0.000028 0.000249 -147.545869 -176.481775 181.023891 2.774877 -0.000028 -0.000032 0.000003 -0.000002 -0.000002 9.533322 0.000411 0.000237 217.440179 -8.548777 -24.860727 3.700009 0.000001 -0.000231 184.859070 -169.379771 -179.548407 2.950022 0.000033 -0.000169 34.888292 -0.237324 0.075353 2.952873 -0.000031 0.000067 -0.000004 0.000003 0.000003 9.104500 -0.042691 -1.864883 221.651414 -4.294904 -11.263735 3.149984 0.000033 -0.000003 178.853763 156.188354 -179.758653 2.949963 0.000053 -0.000112 33.634242 13.764125 -4.178152 2.644318 0.000032 0.000041 0.000001 -0.000002 -0.000000 8.077785 -0.486545 -3.806052 227.216242 0.818438 0.785492 3.599929 -0.000001 0.014654 180.265795 144.549424 -180.218612 2.099939 0.000075 0.007555 34.948282 21.955921 -6.952627 2.125522 -0.000016 0.007516 0.000001 0.000005 -0.000002 -8.207786 -6.751667 -1.599560 -0.077001 -0.000003 0.000080 -0.000002 -44.370110 0.345938 0.153719 -0.000000 -0.000000 0.000000 -44.423679 -3.043532 -0.076700 0.000000 -0.000002 -0.000006 -8.728667 10.710559 -0.000009 -0.000000 -0.000000 -0.000001 -0.000679 9.278123 0.000000 -0.000000 -0.000000 8.207792 -6.751710 -1.599556 -0.074518 -0.000003 0.000081 -0.000002 -44.370014 0.346960 0.148822 0.000002 0.000000 -0.000001 -44.423664 -3.044403 -0.074314 0.000000 -0.000002 -0.000004 -8.728671 10.710558 0.000007 -0.000000 -0.000000 0.000000 -0.000680 9.278137 -0.000000 0.000000 -0.000001 
0.000006 104.270477 1.554256 0.000010 0.000003 -0.000113 -0.000005 10.181587 0.131522 0.000001 -0.000003 0.000084 -0.000000 9.893967 -1.470711 0.000001 0.000000 -0.000000 -0.000000 9.220802 -1.370642 0.000000 -0.000000 -0.000000 0.000001 16.740433 -2.049030 0.000000 -0.000000 -0.000000 0.000000 9.617859 1.685014 0.000000 0.000000 0.000000 0.000002 22.037384 7.501101 0.000000 -0.000000 0.000000 -4.569968 11.014880 -2.160881 0.000008 0.000001 -0.000038 -10.592763 -0.524850 -2.231740 83.021277 66.943087 -60.670159 -27.841496 -0.000002 0.000576 36.094787 101.990406 -43.830181 -28.328835 0.000006 0.000025 -0.000320 -0.000044 0.000006 -2.464549 -1.573590 2.682172 -61.815336 -186.090444 -70.197228 -3.214734 -1.872561 1.924683 130.677420 -17.191347 160.410490 -2.654660 -1.527641 1.513015 129.997023 20.004492 112.069170 -2.018823 -1.152007 1.108060 -0.000001 -0.000004 0.000004 -9.108342 -0.517792 2.260365 154.915944 20.117296 -77.321095 -3.700042 0.000070 0.001756 146.931576 24.481691 -72.243505 -2.850110 0.000184 -0.000038 142.082142 20.431809 -55.360521 -2.772168 -0.000018 -0.000017 -0.000001 -0.000001 -0.000001 -9.532571 0.000076 0.000481 152.141535 14.717632 -55.574476 -3.700091 0.000142 0.004208 142.392860 19.406208 -53.042955 -2.950080 0.000236 -0.001596 137.530599 16.127630 -40.045525 -2.946622 0.000003 -0.000161 -0.000000 0.000001 -0.000001 -9.103673 -0.042938 -1.864621 150.695338 14.901615 -52.982259 -3.379335 0.000197 -0.000584 141.492683 11.218708 -31.462898 -2.889792 0.000260 0.000832 136.586694 9.269210 -23.142059 -2.638805 -0.000019 0.000949 0.000002 -0.000000 -0.000002 -8.076726 -0.486595 -3.805758 151.544617 17.982805 -63.373671 -3.600027 0.000188 -0.003268 144.269482 7.370068 -21.470056 -2.100033 0.000236 -0.005263 139.628956 6.142154 -15.986153 -2.115763 -0.000057 -0.003681 -0.000002 -0.000001 -0.000005 4.570446 11.014691 -2.160851 -0.000018 0.000010 -0.000021 10.592522 -0.524535 -2.232396 66.116463 -64.849607 44.924394 27.841778 -0.000064 -0.000126 223.606433 -79.565864 231.322115 28.328833 -0.000014 0.000021 0.000020 -0.000089 -0.000000 2.466171 -1.576131 2.681883 -63.408075 17.103478 18.919332 3.217833 -1.871978 1.916523 95.571320 145.739967 -146.970180 2.655995 -1.528797 1.514623 42.393840 129.706699 -99.229617 2.020891 -1.154065 1.115156 0.000002 0.000004 0.000006 9.109189 -0.517687 2.260050 31.077122 -168.626306 500.610027 3.700002 -0.000040 -0.000234 -10.925092 -39.387474 -3.916859 2.850019 0.000016 0.000277 -155.764827 -175.698844 180.923624 2.774891 -0.000049 -0.000029 0.000001 -0.000003 -0.000002 9.533330 0.000383 0.000220 216.747625 -7.718574 -22.945319 3.700005 -0.000010 -0.000138 162.915585 -164.288712 -182.374466 2.950027 0.000035 -0.000158 31.021917 -2.469977 0.686331 2.952872 -0.000016 0.000059 -0.000001 -0.000000 0.000001 9.104497 -0.042676 -1.864890 218.726495 -3.729664 -10.590240 3.150003 0.000022 0.000058 160.973338 163.066013 -177.142404 2.949970 0.000061 -0.000085 28.021850 9.227392 -2.306957 2.644316 0.000031 0.000050 0.000002 -0.000003 0.000001 8.077788 -0.486544 -3.806056 224.434456 0.252786 -0.528716 3.599952 -0.000005 0.014762 156.380091 150.146341 -173.817687 2.099976 0.000034 0.007581 27.527795 19.046375 -4.681890 2.125493 -0.000018 0.007516 -0.000001 -0.000001 0.000001 -8.207786 -6.751667 -1.599560 -0.077001 -0.000003 0.000080 -0.000002 -44.370110 0.345938 0.153719 -0.000000 -0.000000 0.000000 -44.423679 -3.043532 -0.076700 0.000000 -0.000002 -0.000006 -8.728667 10.710559 -0.000009 -0.000000 -0.000000 -0.000001 -0.000679 9.278123 0.000000 -0.000000 -0.000000 8.207792 -6.751710 -1.599556 -0.074518 -0.000003 0.000081 -0.000002 -44.370014 0.346960 0.148822 0.000002 0.000000 -0.000001 -44.423664 -3.044403 -0.074314 0.000000 -0.000002 -0.000004 -8.728671 10.710558 0.000007 -0.000000 -0.000000 0.000000 -0.000680 9.278137 -0.000000 0.000000 -0.000001 
